<svg width="31" height="42" viewBox="0 0 31 42" fill="none" xmlns="http://www.w3.org/2000/svg">
<path d="M29.0291 36.4768C29.5557 36.0433 29.9625 35.4821 30.2105 34.8467C30.4586 34.2113 30.5397 33.5229 30.4461 32.8472C30.4412 32.8096 30.4328 32.7726 30.4211 32.7365L25.9202 18.573C26.3319 18.3987 26.6733 18.0914 26.8899 17.7003C27.1065 17.3091 27.1857 16.8567 27.1149 16.4152C27.0441 15.9738 26.8274 15.5688 26.4994 15.265C26.1714 14.9612 25.751 14.7761 25.3054 14.7393L26.1876 10.7806C26.1909 10.764 26.1943 10.7473 26.1968 10.7298C26.244 10.399 26.2196 10.0618 26.1253 9.74125C26.0309 9.42065 25.8687 9.12408 25.6498 8.87161C25.4308 8.61914 25.1601 8.41668 24.8561 8.27793C24.552 8.13917 24.2217 8.06738 23.8875 8.06739H23.1428V7.73417C23.1421 7.11576 22.8961 6.52287 22.4589 6.08558C22.0216 5.64829 21.4287 5.40232 20.8103 5.40164H20.1438C19.5254 5.40232 18.9325 5.64829 18.4952 6.08558C18.0579 6.52287 17.812 7.11576 17.8113 7.73417V8.06739H15.7812C15.8011 7.84747 15.812 7.62588 15.812 7.40095C15.8135 5.75787 15.2635 4.16182 14.25 2.86849C13.2366 1.57517 11.8184 0.659421 10.2226 0.267948C8.62684 -0.123526 6.94585 0.0319333 5.44894 0.70942C3.95202 1.38691 2.72582 2.54721 1.96676 4.00446C1.20769 5.46171 0.959705 7.13155 1.26252 8.7465C1.56533 10.3614 2.40142 11.828 3.63685 12.9113C4.87228 13.9945 6.43554 14.6318 8.07621 14.721C9.71688 14.8101 11.34 14.3461 12.6855 13.4031L12.9829 14.7393C12.5437 14.7751 12.1286 14.9551 11.8023 15.2513C11.4759 15.5475 11.2566 15.9432 11.1785 16.377C11.1004 16.8107 11.1678 17.2581 11.3703 17.6495C11.5728 18.041 11.899 18.3545 12.2982 18.5413L9.3167 28.0639H5.14896V26.7277C5.14896 26.5509 5.07874 26.3814 4.95376 26.2564C4.82878 26.1314 4.65927 26.0612 4.48252 26.0612H1.15033C0.973575 26.0612 0.804064 26.1314 0.679082 26.2564C0.554101 26.3814 0.483887 26.5509 0.483887 26.7277V37.3907C0.483887 37.5674 0.554101 37.737 0.679082 37.8619C0.804064 37.9869 0.973575 38.0571 1.15033 38.0571H4.48252C4.65927 38.0571 4.82878 37.9869 4.95376 37.8619C5.07874 37.737 5.14896 37.5674 5.14896 37.3907V36.0611H6.60429C6.77925 36.0613 6.94725 36.1297 7.07247 36.2519L11.7109 40.822C12.0845 41.1884 12.5871 41.3934 13.1104 41.3927H27.8112C28.3412 41.3919 28.8494 41.1811 29.2242 40.8063C29.5989 40.4315 29.8098 39.9234 29.8105 39.3933V38.0605C29.8106 37.7542 29.7401 37.4521 29.6046 37.1775C29.4691 36.9029 29.2722 36.6631 29.0291 36.4768ZM3.81608 36.7243H1.81676V27.3941H3.81608V36.7243ZM23.1428 9.40027H23.8875C24.0288 9.40047 24.1685 9.43057 24.2973 9.48859C24.4261 9.54661 24.5412 9.63123 24.635 9.7369C24.7288 9.84258 24.7992 9.9669 24.8415 10.1017C24.8838 10.2365 24.8971 10.3787 24.8805 10.5191L23.9417 14.7318H23.1428V9.40027ZM17.8113 9.40027V12.066C17.8113 12.2428 17.8815 12.4123 18.0065 12.5373C18.1315 12.6623 18.301 12.7325 18.4777 12.7325C18.6545 12.7325 18.824 12.6623 18.949 12.5373C19.074 12.4123 19.1442 12.2428 19.1442 12.066V7.73417C19.1444 7.46912 19.2498 7.21498 19.4372 7.02755C19.6246 6.84013 19.8788 6.73474 20.1438 6.73452H20.8103C21.0753 6.73474 21.3295 6.84013 21.5169 7.02755C21.7043 7.21498 21.8097 7.46912 21.8099 7.73417V14.7318H19.1442V14.0653C19.1442 13.8886 19.074 13.7191 18.949 13.5941C18.824 13.4691 18.6545 13.3989 18.4777 13.3989C18.301 13.3989 18.1315 13.4691 18.0065 13.5941C17.8815 13.7191 17.8113 13.8886 17.8113 14.0653V14.7318H14.3466L13.8293 12.4084C14.6298 11.5562 15.2145 10.5248 15.5346 9.40027H17.8113ZM8.48115 13.3989C7.24461 13.3981 6.03858 13.0149 5.02837 12.3018C4.01816 11.5887 3.25322 10.5806 2.83839 9.41572C2.42356 8.25084 2.37915 6.98617 2.71125 5.79506C3.04335 4.60395 3.73569 3.5447 4.69339 2.76249C5.65109 1.98029 6.82727 1.51342 8.06071 1.42588C9.29415 1.33834 10.5245 1.63441 11.5831 2.27351C12.6416 2.91261 13.4766 3.86346 13.9736 4.99572C14.4706 6.12799 14.6053 7.38625 14.3591 8.59805C14.3585 8.59962 14.3582 8.60133 14.3583 8.60304C14.0793 9.95625 13.3426 11.172 12.2721 12.0455C11.2016 12.9191 9.86281 13.397 8.48115 13.3989ZM13.1462 16.0647H25.1421C25.3189 16.0647 25.4884 16.1349 25.6134 16.2599C25.7383 16.3848 25.8086 16.5543 25.8086 16.7311C25.8086 16.9078 25.7383 17.0774 25.6134 17.2023C25.4884 17.3273 25.3189 17.3975 25.1421 17.3975H13.1462C12.9695 17.3975 12.8 17.3273 12.675 17.2023C12.55 17.0774 12.4798 16.9078 12.4798 16.7311C12.4798 16.5543 12.55 16.3848 12.675 16.2599C12.8 16.1349 12.9695 16.0647 13.1462 16.0647ZM28.4776 39.3933C28.4774 39.57 28.4071 39.7394 28.2822 39.8643C28.1572 39.9892 27.9879 40.0595 27.8112 40.0598H13.1104C12.9364 40.06 12.7693 39.9921 12.6447 39.8707L8.00798 35.3031C7.63459 34.9333 7.12982 34.7266 6.60429 34.7283H5.15229V29.3968H11.8175L14.6349 29.3901H14.6365C14.7286 29.3902 14.8196 29.4093 14.9039 29.4463C14.9882 29.4833 15.064 29.5373 15.1264 29.605L20.5537 35.4988C20.5597 35.5056 20.566 35.512 20.5728 35.518C20.6814 35.6269 20.7491 35.7698 20.7646 35.9228C20.7801 36.0757 20.7423 36.2293 20.6578 36.3577H20.657C20.6325 36.3949 20.6043 36.4295 20.5728 36.461L19.6307 37.4032C19.5055 37.528 19.3359 37.5981 19.1592 37.5981C18.9824 37.5981 18.8128 37.528 18.6877 37.4032L14.4466 33.1621C14.3853 33.0976 14.3118 33.0461 14.2303 33.0105C14.1488 32.9748 14.0609 32.9559 13.972 32.9548C13.883 32.9536 13.7948 32.9703 13.7124 33.0038C13.63 33.0373 13.5551 33.087 13.4922 33.1499C13.4293 33.2128 13.3796 33.2877 13.3461 33.3701C13.3126 33.4525 13.2959 33.5407 13.2971 33.6297C13.2982 33.7186 13.3171 33.8065 13.3528 33.888C13.3884 33.9695 13.4399 34.043 13.5044 34.1043L17.7455 38.3454C18.1204 38.7203 18.6289 38.9309 19.1592 38.9309C19.6894 38.9309 20.1979 38.7203 20.5728 38.3454L21.515 37.4032C21.5184 37.4007 21.5209 37.3965 21.5242 37.394H27.8112C27.988 37.394 28.1575 37.4642 28.2824 37.5892C28.4074 37.7142 28.4776 37.8837 28.4776 38.0605V39.3933ZM14.4791 27.3941C14.4788 26.4737 14.7509 25.5737 15.2609 24.8075C15.771 24.0413 16.4964 23.4432 17.3457 23.0883C18.195 22.7334 19.1303 22.6378 20.0338 22.8133C20.9374 22.9888 21.7688 23.4277 22.4235 24.0748C23.0781 24.7218 23.5268 25.548 23.7129 26.4495C23.899 27.3509 23.8143 28.2873 23.4694 29.1407C23.1245 29.9941 22.5349 30.7264 21.7747 31.2454C21.0146 31.7644 20.1179 32.047 19.1975 32.0575L16.1077 28.7028C15.9203 28.4996 15.6928 28.3373 15.4396 28.2262C15.1865 28.1151 14.913 28.0576 14.6365 28.0572H14.6324L14.5274 28.0581C14.4959 27.8381 14.4798 27.6163 14.4791 27.3941ZM26.485 36.0578H22.099C22.1082 35.7865 22.0621 35.5162 21.9636 35.2633C21.8651 35.0104 21.7161 34.7802 21.5259 34.5867L20.3188 33.2754C21.4328 33.053 22.4607 32.5187 23.2829 31.7348C24.1051 30.951 24.6878 29.9497 24.9632 28.8476C25.2386 27.7455 25.1953 26.5878 24.8384 25.5093C24.4816 24.4308 23.8257 23.4759 22.9473 22.7556C22.0688 22.0352 21.0039 21.5792 19.8764 21.4405C18.7489 21.3019 17.6052 21.4862 16.5784 21.9722C15.5515 22.4581 14.6838 23.2257 14.0762 24.1856C13.4686 25.1454 13.1461 26.2581 13.1462 27.3941C13.1466 27.6168 13.1591 27.8392 13.1837 28.0606L11.8167 28.0639H10.7137L13.6361 18.7304H15.812V20.0633C15.812 20.24 15.8822 20.4096 16.0072 20.5345C16.1322 20.6595 16.3017 20.7297 16.4784 20.7297C16.6552 20.7297 16.8247 20.6595 16.9497 20.5345C17.0746 20.4096 17.1449 20.24 17.1449 20.0633V18.7304H24.5715L29.1333 33.0822C29.1769 33.4559 29.141 33.8346 29.0278 34.1934C28.9146 34.5522 28.7268 34.883 28.4767 35.1641C28.2265 35.4452 27.9198 35.6701 27.5765 35.8241C27.2332 35.9782 26.8612 36.0578 26.485 36.0578Z" fill="url(#paint0_angular)"/>
<path d="M17.8115 28.7276C17.6347 28.7276 17.4652 28.7978 17.3402 28.9228C17.2152 29.0477 17.145 29.2173 17.145 29.394C17.145 29.5708 17.2152 29.7403 17.3402 29.8653C17.4652 29.9902 17.6347 30.0604 17.8115 30.0604H18.4779C18.4779 30.2372 18.5481 30.4067 18.6731 30.5317C18.7981 30.6567 18.9676 30.7269 19.1443 30.7269C19.3211 30.7269 19.4906 30.6567 19.6156 30.5317C19.7406 30.4067 19.8108 30.2372 19.8108 30.0604H20.4772C20.654 30.0604 20.8235 29.9902 20.9485 29.8653C21.0734 29.7403 21.1437 29.5708 21.1437 29.394V27.3947C21.1437 27.2179 21.0734 27.0484 20.9485 26.9234C20.8235 26.7985 20.654 26.7283 20.4772 26.7283H18.4779V26.0618H20.4772C20.654 26.0618 20.8235 25.9916 20.9485 25.8666C21.0734 25.7416 21.1437 25.5721 21.1437 25.3954C21.1437 25.2186 21.0734 25.0491 20.9485 24.9241C20.8235 24.7992 20.654 24.7289 20.4772 24.7289H19.8108C19.8108 24.5522 19.7406 24.3827 19.6156 24.2577C19.4906 24.1327 19.3211 24.0625 19.1443 24.0625C18.9676 24.0625 18.7981 24.1327 18.6731 24.2577C18.5481 24.3827 18.4779 24.5522 18.4779 24.7289H17.8115C17.6347 24.7289 17.4652 24.7992 17.3402 24.9241C17.2152 25.0491 17.145 25.2186 17.145 25.3954V27.3947C17.145 27.5714 17.2152 27.741 17.3402 27.8659C17.4652 27.9909 17.6347 28.0611 17.8115 28.0611H19.8108V28.7276H17.8115Z" fill="url(#paint1_angular)"/>
<path d="M11.3421 4.93161L7.72974 8.54396L6.1851 7.51415C6.11229 7.46504 6.0305 7.43081 5.94443 7.41341C5.85835 7.39602 5.76968 7.39581 5.68352 7.4128C5.59736 7.42979 5.51541 7.46363 5.44238 7.51239C5.36934 7.56116 5.30667 7.62387 5.25795 7.69694C5.20923 7.77 5.17544 7.85198 5.1585 7.93814C5.14157 8.02431 5.14183 8.11298 5.15928 8.19905C5.17673 8.28511 5.21101 8.36688 5.26016 8.43966C5.30931 8.51243 5.37236 8.57477 5.44568 8.6231L7.445 9.95598C7.5732 10.0414 7.72705 10.0799 7.88037 10.0647C8.0337 10.0495 8.17702 9.98163 8.28596 9.87267L12.2846 5.87404C12.4096 5.74905 12.4798 5.57954 12.4798 5.40278C12.4798 5.22603 12.4096 5.05651 12.2846 4.93153C12.1596 4.80654 11.9901 4.73633 11.8133 4.73633C11.6366 4.73633 11.4671 4.80654 11.3421 4.93153V4.93161Z" fill="url(#paint2_angular)"/>
<defs>
<radialGradient id="paint0_angular" cx="0" cy="0" r="1" gradientUnits="userSpaceOnUse" gradientTransform="translate(10.1178 28.5297) rotate(36.7595) scale(21.5803 23.6558)">
<stop offset="0.598958" stop-color="#14B1F8"/>
<stop offset="1" stop-color="#01EAB2"/>
</radialGradient>
<radialGradient id="paint1_angular" cx="0" cy="0" r="1" gradientUnits="userSpaceOnUse" gradientTransform="translate(18.4291 28.6531) rotate(42.0998) scale(3.10579 3.53219)">
<stop offset="0.598958" stop-color="#14B1F8"/>
<stop offset="1" stop-color="#01EAB2"/>
</radialGradient>
<radialGradient id="paint2_angular" cx="0" cy="0" r="1" gradientUnits="userSpaceOnUse" gradientTransform="translate(7.50111 8.40882) rotate(21.5108) scale(4.54292 3.54319)">
<stop offset="0.598958" stop-color="#14B1F8"/>
<stop offset="1" stop-color="#01EAB2"/>
</radialGradient>
</defs>
</svg>
