<svg width="36" height="34" viewBox="0 0 36 34" fill="none" xmlns="http://www.w3.org/2000/svg">
<path d="M7.85172 11.3155C7.68888 11.3155 7.53272 11.2508 7.41757 11.1357C7.30243 11.0205 7.23775 10.8644 7.23775 10.7015V9.99194C6.99799 9.91686 6.77573 9.79447 6.5841 9.632C6.40668 9.48378 6.26347 9.29889 6.16433 9.09004C6.06519 8.88119 6.01247 8.65334 6.00981 8.42217C6.00981 8.25934 6.0745 8.10317 6.18964 7.98803C6.30478 7.87289 6.46094 7.8082 6.62378 7.8082C6.78661 7.8082 6.94278 7.87289 7.05792 7.98803C7.17306 8.10317 7.23775 8.25934 7.23775 8.42217C7.24038 8.47612 7.25472 8.52885 7.27976 8.57671C7.30481 8.62456 7.33997 8.66639 7.3828 8.6993C7.51519 8.80604 7.68092 8.8628 7.85095 8.85963H7.85202C8.02204 8.86272 8.18774 8.80597 8.32017 8.6993C8.36308 8.66643 8.39832 8.62462 8.42345 8.57676C8.44857 8.52891 8.46299 8.47616 8.46568 8.42217V8.332C8.4609 8.2647 8.43925 8.1997 8.40273 8.14297C8.3662 8.08625 8.31599 8.03964 8.2567 8.00744L6.78318 7.06116C6.55052 6.91812 6.35768 6.71872 6.22251 6.48141C6.08733 6.24409 6.01417 5.97652 6.00981 5.70344V5.61327C6.01247 5.3821 6.06519 5.15425 6.16433 4.9454C6.26347 4.73655 6.40668 4.55166 6.5841 4.40344C6.77574 4.241 6.998 4.11864 7.23775 4.04358V3.33391C7.23775 3.17107 7.30243 3.01491 7.41757 2.89977C7.53272 2.78463 7.68888 2.71994 7.85172 2.71994C8.01455 2.71994 8.17072 2.78463 8.28586 2.89977C8.401 3.01491 8.46568 3.17107 8.46568 3.33391V4.0435C8.70544 4.11857 8.9277 4.24097 9.11933 4.40344C9.29674 4.55167 9.43994 4.73656 9.53908 4.94541C9.63822 5.15426 9.69094 5.3821 9.69362 5.61327C9.69362 5.7761 9.62894 5.93227 9.51379 6.04741C9.39865 6.16255 9.24249 6.22723 9.07965 6.22723C8.91682 6.22723 8.76065 6.16255 8.64551 6.04741C8.53037 5.93227 8.46568 5.7761 8.46568 5.61327C8.46305 5.55932 8.44872 5.50659 8.42367 5.45873C8.39862 5.41088 8.36346 5.36904 8.32063 5.33614C8.18824 5.22938 8.02252 5.1726 7.85248 5.17574H7.85049C7.68045 5.17264 7.51474 5.22941 7.38234 5.33614C7.3396 5.3691 7.30453 5.41095 7.27957 5.4588C7.2546 5.50665 7.24033 5.55936 7.23775 5.61327V5.70344C7.24253 5.77074 7.26418 5.83574 7.3007 5.89247C7.33723 5.94919 7.38744 5.9958 7.44673 6.028L8.92025 6.97428C9.15291 7.11733 9.34574 7.31672 9.48092 7.55404C9.61609 7.79135 9.68925 8.05892 9.69362 8.332V8.42217C9.69094 8.65334 9.63822 8.88118 9.53908 9.09003C9.43994 9.29888 9.29674 9.48377 9.11933 9.632C8.9277 9.79447 8.70544 9.91686 8.46568 9.99194V10.7015C8.46568 10.8644 8.401 11.0205 8.28586 11.1357C8.17072 11.2508 8.01455 11.3155 7.85172 11.3155ZM8.6455 28.0725L8.04036 28.6776C7.96497 28.7527 7.86598 28.7994 7.76011 28.8099C7.65425 28.8203 7.54802 28.7939 7.45939 28.7351L7.08333 28.4844C6.94185 28.3906 6.78692 28.3188 6.62385 28.2716V27.8927H7.23782C7.40066 27.8927 7.55682 27.828 7.67197 27.7128C7.78711 27.5977 7.85179 27.4415 7.85179 27.2787C7.85179 27.1158 7.78711 26.9597 7.67197 26.8445C7.55682 26.7294 7.40066 26.6647 7.23782 26.6647H6.62385V25.4368C6.62385 25.2739 6.68854 25.1178 6.80368 25.0026C6.91882 24.8875 7.07499 24.8228 7.23782 24.8228C7.40066 24.8228 7.55682 24.8875 7.67197 25.0026C7.78711 25.1178 7.85179 25.2739 7.85179 25.4368C7.85179 25.5996 7.91648 25.7558 8.03162 25.8709C8.14676 25.9861 8.30293 26.0507 8.46576 26.0507C8.6286 26.0507 8.78476 25.9861 8.8999 25.8709C9.01504 25.7558 9.07973 25.5996 9.07973 25.4368C9.07973 24.9483 8.88567 24.4798 8.54025 24.1344C8.19482 23.7889 7.72633 23.5949 7.23782 23.5949C6.74932 23.5949 6.28082 23.7889 5.9354 24.1344C5.58997 24.4798 5.39592 24.9483 5.39592 25.4368V26.6647H4.78195C4.61911 26.6647 4.46295 26.7294 4.34781 26.8445C4.23267 26.9597 4.16798 27.1158 4.16798 27.2787C4.16798 27.4415 4.23267 27.5977 4.34781 27.7128C4.46295 27.828 4.61911 27.8927 4.78195 27.8927H5.39592V28.3788C5.23199 28.4595 5.08236 28.5663 4.95294 28.6953L4.3478 29.3004C4.23265 29.4155 4.16796 29.5717 4.16796 29.7346C4.16796 29.8974 4.23265 30.0536 4.3478 30.1687C4.46294 30.2839 4.61911 30.3485 4.78195 30.3485C4.94479 30.3485 5.10096 30.2839 5.2161 30.1687L5.82124 29.5636C5.8966 29.4885 5.9956 29.4417 6.10148 29.4312C6.20736 29.4208 6.3136 29.4472 6.40221 29.5061L6.77827 29.7568C7.10331 29.9725 7.49285 30.0693 7.88103 30.0309C8.26921 29.9924 8.63222 29.8211 8.90866 29.5459L9.5138 28.9408C9.62895 28.8256 9.69364 28.6695 9.69364 28.5066C9.69364 28.3438 9.62895 28.1876 9.5138 28.0725C9.39866 27.9573 9.24249 27.8926 9.07965 27.8926C8.91681 27.8926 8.76064 27.9573 8.6455 28.0725ZM26.9749 25.667H26.3475C26.1847 25.667 26.0285 25.7317 25.9134 25.8468C25.7982 25.962 25.7336 26.1182 25.7336 26.281C25.7336 26.4438 25.7982 26.6 25.9134 26.7151C26.0285 26.8303 26.1847 26.895 26.3475 26.895H26.808V27.6624H26.3475C26.1847 27.6624 26.0285 27.7271 25.9134 27.8422C25.7982 27.9574 25.7336 28.1135 25.7336 28.2764C25.7336 28.4392 25.7982 28.5954 25.9134 28.7105C26.0285 28.8257 26.1847 28.8904 26.3475 28.8904H26.9753C27.1837 29.4946 27.5752 30.0189 28.0954 30.3902C28.6157 30.7616 29.2387 30.9617 29.8778 30.9625C30.0407 30.9625 30.1968 30.8978 30.312 30.7827C30.4271 30.6675 30.4918 30.5114 30.4918 30.3485C30.4918 30.1857 30.4271 30.0295 30.312 29.9144C30.1968 29.7992 30.0407 29.7346 29.8778 29.7346C29.57 29.7344 29.267 29.657 28.9968 29.5095C28.7265 29.362 28.4975 29.1492 28.3307 28.8904H29.1104C29.2732 28.8904 29.4294 28.8257 29.5445 28.7105C29.6597 28.5954 29.7243 28.4392 29.7243 28.2764C29.7243 28.1135 29.6597 27.9574 29.5445 27.8422C29.4294 27.7271 29.2732 27.6624 29.1104 27.6624H28.0359V26.895H29.1104C29.2732 26.895 29.4294 26.8303 29.5445 26.7151C29.6597 26.6 29.7243 26.4438 29.7243 26.281C29.7243 26.1182 29.6597 25.962 29.5445 25.8468C29.4294 25.7317 29.2732 25.667 29.1104 25.667H28.3303C28.4971 25.4081 28.7262 25.1952 28.9965 25.0478C29.2669 24.9003 29.5699 24.8229 29.8778 24.8228C30.0407 24.8228 30.1968 24.7581 30.312 24.643C30.4271 24.5278 30.4918 24.3717 30.4918 24.2088C30.4918 24.046 30.4271 23.8898 30.312 23.7747C30.1968 23.6596 30.0407 23.5949 29.8778 23.5949C29.2386 23.5956 28.6155 23.7956 28.0952 24.167C27.5749 24.5384 27.1833 25.0627 26.9749 25.667ZM30.748 4.12769L28.7267 6.14941L26.7045 4.12769C26.5894 4.01255 26.4332 3.94786 26.2704 3.94786C26.1076 3.94786 25.9514 4.01255 25.8362 4.12769C25.7211 4.24284 25.6564 4.39901 25.6564 4.56184C25.6564 4.72468 25.7211 4.88085 25.8362 4.996L27.244 6.40375H26.8847C26.7219 6.40375 26.5657 6.46844 26.4506 6.58358C26.3355 6.69872 26.2708 6.85488 26.2708 7.01772C26.2708 7.18055 26.3355 7.33672 26.4506 7.45186C26.5657 7.567 26.7219 7.63169 26.8847 7.63169H28.1127V8.24566H26.8847C26.7219 8.24566 26.5657 8.31034 26.4506 8.42548C26.3355 8.54062 26.2708 8.69679 26.2708 8.85963C26.2708 9.02246 26.3355 9.17863 26.4506 9.29377C26.5657 9.40891 26.7219 9.47359 26.8847 9.47359H28.1127V10.0876C28.1127 10.2504 28.1774 10.4066 28.2925 10.5217C28.4076 10.6368 28.5638 10.7015 28.7267 10.7015C28.8895 10.7015 29.0457 10.6368 29.1608 10.5217C29.2759 10.4066 29.3406 10.2504 29.3406 10.0876V9.47359H30.5686C30.7314 9.47359 30.8876 9.40891 31.0027 9.29377C31.1178 9.17863 31.1825 9.02246 31.1825 8.85963C31.1825 8.69679 31.1178 8.54062 31.0027 8.42548C30.8876 8.31034 30.7314 8.24566 30.5686 8.24566H29.3406V7.63169H30.5686C30.7314 7.63169 30.8876 7.567 31.0027 7.45186C31.1178 7.33672 31.1825 7.18055 31.1825 7.01772C31.1825 6.85488 31.1178 6.69872 31.0027 6.58358C30.8876 6.46844 30.7314 6.40375 30.5686 6.40375H30.2088L31.6167 4.996C31.7318 4.88085 31.7965 4.72468 31.7965 4.56184C31.7965 4.39901 31.7318 4.24284 31.6167 4.12769C31.5015 4.01255 31.3454 3.94786 31.1825 3.94786C31.0197 3.94786 30.8631 4.01255 30.748 4.12769ZM34.2412 18.0468C34.2484 17.8514 34.252 17.6523 34.252 17.4552C34.2571 15.3676 33.8492 13.2997 33.0516 11.3705C32.1559 12.2624 31.0064 12.8554 29.7605 13.0685C30.7505 15.6667 30.8328 18.5233 29.994 21.1742C31.0116 21.2825 31.986 21.6434 32.8286 22.2241C33.6712 22.8048 34.3552 23.5869 34.8185 24.4994C35.2819 25.4118 35.5098 26.4255 35.4816 27.4485C35.4533 28.4714 35.1698 29.4711 34.6569 30.3565C34.1439 31.242 33.4178 31.9852 32.5444 32.5186C31.6711 33.0519 30.6783 33.3585 29.6563 33.4105C28.6343 33.4624 27.6155 33.2581 26.6926 32.816C25.7697 32.374 24.9719 31.7083 24.3718 30.8794C22.462 31.7485 20.3874 32.1957 18.2892 32.1904C18.1263 32.1904 17.9702 32.1257 17.855 32.0106C17.7399 31.8955 17.6752 31.7393 17.6752 31.5765C17.6752 31.4136 17.7399 31.2575 17.855 31.1423C17.9702 31.0272 18.1263 30.9625 18.2892 30.9625C20.1702 30.9673 22.0311 30.5754 23.7504 29.8124C23.5794 29.4368 23.4471 29.0448 23.3554 28.6424C21.668 29.4055 19.83 29.7775 17.9786 29.7307C16.1273 29.6839 14.3104 29.2194 12.6637 28.372C12.4951 29.3071 12.1117 30.1904 11.5437 30.9521C10.9757 31.7139 10.2386 32.3334 9.3905 32.7619C8.54237 33.1903 7.60636 33.416 6.65616 33.4213C5.70597 33.4265 4.76753 33.211 3.91476 32.7919C3.06199 32.3727 2.31816 31.7614 1.74184 31.0059C1.16553 30.2504 0.77247 29.3714 0.593613 28.4382C0.414757 27.505 0.454987 26.543 0.711137 25.6279C0.967288 24.7129 1.43236 23.8698 2.06974 23.1651C1.42438 21.3307 1.09579 19.3998 1.09806 17.4552C1.09806 17.2924 1.16275 17.1362 1.27789 17.021C1.39303 16.9059 1.54919 16.8412 1.71203 16.8412C1.87486 16.8412 2.03103 16.9059 2.14617 17.021C2.26131 17.1362 2.326 17.2924 2.326 17.4552C2.32435 19.0914 2.57463 20.7182 3.06805 22.2782C4.09126 21.5468 5.31543 21.1494 6.57313 21.1403C5.74589 18.4986 5.83186 15.6554 6.81718 13.0685C5.81051 12.897 4.86251 12.4771 4.05906 11.8468C3.2556 11.2165 2.62207 10.3958 2.21584 9.45891C1.80961 8.52202 1.64351 7.49858 1.7326 6.48131C1.82168 5.46403 2.16314 4.48505 2.72603 3.63303C3.28892 2.781 4.05547 2.08286 4.95625 1.60183C5.85702 1.1208 6.86357 0.872081 7.88472 0.878196C8.90587 0.884312 9.90937 1.14507 10.8043 1.63685C11.6993 2.12864 12.4574 2.83591 13.01 3.69461C14.6947 3.04726 16.4845 2.71682 18.2892 2.71994C18.452 2.71994 18.6082 2.78463 18.7233 2.89977C18.8385 3.01491 18.9032 3.17107 18.9032 3.33391C18.9032 3.49674 18.8385 3.65291 18.7233 3.76805C18.6082 3.88319 18.452 3.94788 18.2892 3.94788C16.6791 3.94507 15.0816 4.23183 13.5731 4.79446C13.7229 5.17862 13.8333 5.57701 13.9025 5.98349C16.7279 4.90682 19.8504 4.90658 22.6759 5.9828C22.8281 5.08741 23.1772 4.23695 23.6978 3.49276C24.2185 2.74856 24.8978 2.12916 25.6867 1.67923C26.4757 1.2293 27.3547 0.960043 28.2603 0.890875C29.1659 0.821707 30.0755 0.954352 30.9237 1.27925C31.7718 1.60414 32.5373 2.11318 33.1649 2.76968C33.7925 3.42617 34.2667 4.21376 34.5531 5.07564C34.8396 5.93753 34.9312 6.85224 34.8214 7.75382C34.7116 8.6554 34.4031 9.52138 33.9182 10.2893C34.9531 12.5362 35.4861 14.9815 35.4803 17.4552C35.4803 17.6672 35.4764 17.8813 35.4687 18.0915C35.4629 18.2503 35.3958 18.4008 35.2813 18.5111C35.1669 18.6214 35.0142 18.6831 34.8552 18.6831C34.8475 18.6831 34.8399 18.6831 34.8322 18.6831C34.7516 18.6802 34.6724 18.6613 34.5991 18.6278C34.5258 18.5942 34.4598 18.5465 34.4049 18.4874C34.35 18.4283 34.3073 18.359 34.2793 18.2834C34.2512 18.2078 34.2383 18.1274 34.2412 18.0468ZM26.052 12.5434H22.2512C22.4511 13.9677 22.5614 15.4031 22.5812 16.8412H29.3233C29.2559 15.5708 28.9671 14.3219 28.4698 13.1509C27.6306 13.1171 26.8075 12.9103 26.052 12.5434ZM28.6997 21.1725C29.0563 20.1736 29.2662 19.1283 29.3229 18.0692H22.5815C22.5634 19.3006 22.4803 20.5303 22.3327 21.753H26.6659C27.3048 21.4424 27.9932 21.2459 28.6997 21.1725ZM20.3081 25.519C20.5647 24.6871 20.7663 23.8393 20.9114 22.9809H15.6662C15.8113 23.8393 16.0128 24.6871 16.2694 25.519C16.965 27.7217 17.7686 28.5066 18.2892 28.5066C18.8098 28.5066 19.6125 27.7217 20.3081 25.519ZM12.7563 27.0227C13.8167 27.6366 14.9722 28.0691 16.1751 28.3022C15.7731 27.6878 15.4116 26.8809 15.0982 25.8887C14.8051 24.9364 14.5788 23.9648 14.4212 22.9809H11.0024C12.0688 24.0636 12.6938 25.5043 12.7563 27.0227ZM8.10705 13.1509C7.61022 14.322 7.32159 15.5709 7.25417 16.8412H13.9961C14.0159 15.4031 14.1262 13.9677 14.3261 12.5434H10.5256C9.7699 12.9104 8.94648 13.1172 8.10705 13.1509ZM12.2304 11.3155H14.5301C14.6749 10.5405 14.8646 9.77458 15.0985 9.02164C15.4125 8.02724 15.7749 7.21895 16.178 6.60413C15.4253 6.74973 14.6901 6.97428 13.9845 7.27405C13.9219 8.79228 13.2966 10.2329 12.2304 11.3155ZM18.2892 6.40375C17.769 6.40375 16.9654 7.18863 16.2698 9.3914C16.0732 10.0237 15.9104 10.666 15.7818 11.3155H20.7958C20.6674 10.666 20.5046 10.0237 20.3081 9.3914C19.6125 7.18863 18.8089 6.40375 18.2892 6.40375ZM15.5662 12.5434C15.3584 13.967 15.2443 15.4027 15.2247 16.8412H21.3537C21.334 15.4027 21.2199 13.967 21.0121 12.5434H15.5662ZM9.29915 21.7535C9.30275 21.7535 9.30621 21.753 9.30989 21.753H14.2447C14.097 20.5303 14.014 19.3006 13.9959 18.0692H7.25448C7.31349 19.1656 7.53664 20.2469 7.91649 21.2771C8.3947 21.3799 8.85918 21.5398 9.29915 21.7535ZM21.0966 21.753C21.2495 20.5307 21.3352 19.3009 21.3533 18.0692H15.2243C15.2424 19.3009 15.3281 20.5307 15.481 21.753H21.0966ZM24.3472 11.3155C23.2809 10.2329 22.6556 8.79218 22.5931 7.2739C21.8876 6.97464 21.1526 6.75043 20.4002 6.60498C20.8031 7.21979 21.1652 8.02777 21.4791 9.02164C21.7129 9.77459 21.9027 10.5405 22.0475 11.3155H24.3472ZM7.85172 11.9295C8.82317 11.9295 9.7728 11.6414 10.5805 11.1017C11.3883 10.562 12.0178 9.79487 12.3896 8.89736C12.7613 7.99986 12.8586 7.01227 12.6691 6.05948C12.4796 5.1067 12.0118 4.23151 11.3248 3.54459C10.6379 2.85767 9.76274 2.38987 8.80995 2.20035C7.85716 2.01083 6.86958 2.1081 5.97207 2.47986C5.07457 2.85161 4.30745 3.48116 3.76774 4.2889C3.22803 5.09663 2.93997 6.04627 2.93997 7.01772C2.94145 8.31994 3.45941 9.5684 4.38022 10.4892C5.30103 11.41 6.54949 11.928 7.85172 11.9295ZM11.5355 27.2787C11.5355 26.3072 11.2475 25.3576 10.7077 24.5499C10.168 23.7421 9.40093 23.1126 8.50342 22.7408C7.60592 22.3691 6.61833 22.2718 5.66554 22.4613C4.71276 22.6508 3.83757 23.1186 3.15065 23.8056C2.46373 24.4925 1.99593 25.3677 1.80641 26.3204C1.61689 27.2732 1.71415 28.2608 2.08591 29.1583C2.45767 30.0558 3.08722 30.8229 3.89496 31.3627C4.70269 31.9024 5.65233 32.1904 6.62378 32.1904C7.926 32.1889 9.17446 31.671 10.0953 30.7502C11.0161 29.8294 11.534 28.5809 11.5355 27.2787ZM23.2029 27.3554C23.2029 27.3296 23.2009 27.3042 23.2009 27.2787C23.2002 25.6704 23.8327 24.1264 24.9616 22.9809H22.1566C21.9988 23.9648 21.7725 24.9364 21.4791 25.8887C21.1651 26.8831 20.8028 27.6913 20.3997 28.3062C21.3729 28.1183 22.3162 27.7984 23.2029 27.3554ZM29.3406 22.3669C28.3692 22.3669 27.4195 22.655 26.6118 23.1947C25.8041 23.7344 25.1745 24.5015 24.8028 25.399C24.431 26.2965 24.3337 27.2841 24.5232 28.2369C24.7128 29.1897 25.1806 30.0649 25.8675 30.7518C26.5544 31.4387 27.4296 31.9065 28.3824 32.0961C29.3352 32.2856 30.3228 32.1883 31.2203 31.8165C32.1178 31.4448 32.8849 30.8152 33.4246 30.0075C33.9643 29.1998 34.2524 28.2501 34.2524 27.2787C34.2509 25.9765 33.7329 24.728 32.8121 23.8072C31.8913 22.8864 30.6428 22.3684 29.3406 22.3669ZM33.6384 7.01772C33.6384 6.04627 33.3503 5.09663 32.8106 4.2889C32.2709 3.48116 31.5038 2.85161 30.6063 2.47986C29.7088 2.1081 28.7212 2.01083 27.7684 2.20035C26.8156 2.38987 25.9404 2.85767 25.2535 3.54459C24.5666 4.23151 24.0988 5.1067 23.9093 6.05948C23.7198 7.01227 23.817 7.99986 24.1888 8.89736C24.5605 9.79487 25.1901 10.562 25.9978 11.1017C26.8056 11.6414 27.7552 11.9295 28.7267 11.9295C30.0289 11.928 31.2773 11.41 32.1981 10.4892C33.119 9.5684 33.6369 8.31994 33.6384 7.01772Z" fill="url(#paint0_angular)"/>
<defs>
<radialGradient id="paint0_angular" cx="0" cy="0" r="1" gradientUnits="userSpaceOnUse" gradientTransform="translate(11.7235 23.2929) rotate(26.7555) scale(22.5891 20.7606)">
<stop offset="0.598958" stop-color="#14B1F8"/>
<stop offset="1" stop-color="#01EAB2"/>
</radialGradient>
</defs>
</svg>
