<svg width="34" height="35" viewBox="0 0 34 35" fill="none" xmlns="http://www.w3.org/2000/svg">
<path d="M5.49951 21.2717V26.2286C5.49951 28.6556 6.93287 30.8612 9.151 31.8466L10.9683 32.6555L12.7855 31.8472C15.0037 30.8612 16.437 28.6562 16.437 26.2291V21.2723L10.9683 19.4495L5.49951 21.2717ZM15.3433 26.2291C15.3433 28.2247 14.1653 30.0376 12.3415 30.8475L10.9683 31.4578L9.59506 30.8475C7.77123 30.0376 6.59326 28.2247 6.59326 26.2291V22.0603L10.9683 20.6018L15.3433 22.0603V26.2291ZM8.23389 24.4004C8.23389 25.2552 8.64623 26.0629 9.32764 26.5764V29.3223H12.6089V26.5764C13.2903 26.0629 13.7026 25.2552 13.7026 24.4004C13.7026 22.8927 12.476 21.666 10.9683 21.666C9.46053 21.666 8.23389 22.8927 8.23389 24.4004ZM12.6089 24.4004C12.6089 24.9845 12.3015 25.5122 11.7869 25.8119L11.5151 25.9699V28.2285H10.4214V25.9699L10.1496 25.8119C9.63498 25.5122 9.32764 24.9845 9.32764 24.4004C9.32764 23.4959 10.0637 22.7598 10.9683 22.7598C11.8728 22.7598 12.6089 23.4959 12.6089 24.4004ZM24.6401 0.884766C19.5137 0.884766 15.3433 5.05523 15.3433 10.1816V17.291H2.76514C1.2574 17.291 0.0307617 18.5177 0.0307617 20.0254V32.0566C0.0307617 33.5644 1.2574 34.791 2.76514 34.791H19.1714C20.6791 34.791 21.9058 33.5644 21.9058 32.0566V20.0254C21.9058 18.7052 20.9646 17.6005 19.7183 17.3463V10.1816C19.7183 7.46805 21.926 5.25977 24.6401 5.25977C27.3543 5.25977 29.562 7.46805 29.562 10.1816V12.916C29.562 14.1224 30.5431 15.1035 31.7495 15.1035C32.9559 15.1035 33.937 14.1224 33.937 12.916V10.1816C33.937 5.05523 29.7665 0.884766 24.6401 0.884766ZM20.812 20.0254V32.0566C20.812 32.9612 20.0759 33.6973 19.1714 33.6973H2.76514C1.86061 33.6973 1.12451 32.9612 1.12451 32.0566V20.0254C1.12451 19.1209 1.86061 18.3848 2.76514 18.3848H19.1714C20.0759 18.3848 20.812 19.1209 20.812 20.0254ZM32.8433 12.916C32.8433 13.5192 32.3527 14.0098 31.7495 14.0098C31.1463 14.0098 30.6558 13.5192 30.6558 12.916V10.1816C30.6558 6.86484 27.9569 4.16602 24.6401 4.16602C21.3233 4.16602 18.6245 6.86484 18.6245 10.1816V17.291H16.437V10.1816C16.437 5.65844 20.1169 1.97852 24.6401 1.97852C29.1633 1.97852 32.8433 5.65844 32.8433 10.1816V12.916ZM26.8276 17.8379H27.9214V22.2129H26.8276V17.8379ZM28.4683 23.3066H29.562V27.6816H28.4683V23.3066ZM31.7495 27.6816H30.6558V23.3066H31.7495V27.6816ZM32.2964 33.1504H31.2026V28.7754H32.2964V33.1504ZM24.6401 28.7754H25.7339V33.1504H24.6401V28.7754ZM25.7339 22.2129H24.6401V17.8379H25.7339V22.2129ZM32.2964 18.9316C32.2964 18.3284 31.8058 17.8379 31.2026 17.8379H30.1089C29.5057 17.8379 29.0151 18.3284 29.0151 18.9316V21.1191C29.0151 21.7223 29.5057 22.2129 30.1089 22.2129H31.2026C31.8058 22.2129 32.2964 21.7223 32.2964 21.1191V18.9316ZM30.1089 21.1191V18.9316H31.2026L31.2037 21.1191H30.1089ZM24.0933 24.4004V26.5879C24.0933 27.1911 24.5838 27.6816 25.187 27.6816H26.2808C26.884 27.6816 27.3745 27.1911 27.3745 26.5879V24.4004C27.3745 23.7972 26.884 23.3066 26.2808 23.3066H25.187C24.5838 23.3066 24.0933 23.7972 24.0933 24.4004ZM25.187 24.4004H26.2808L26.2819 26.5879H25.187V24.4004ZM26.8276 29.8691V32.0566C26.8276 32.6598 27.3182 33.1504 27.9214 33.1504H29.0151C29.6183 33.1504 30.1089 32.6598 30.1089 32.0566V29.8691C30.1089 29.2659 29.6183 28.7754 29.0151 28.7754H27.9214C27.3182 28.7754 26.8276 29.2659 26.8276 29.8691ZM29.0162 32.0566H27.9214V29.8691H29.0151L29.0162 32.0566ZM8.78076 7.44727H7.68701V3.07227H8.78076V7.44727ZM10.9683 7.44727H9.87451V3.07227H10.9683V7.44727ZM2.21826 7.44727H1.12451V3.07227H2.21826V7.44727ZM5.49951 3.07227H4.40576C3.80256 3.07227 3.31201 3.56281 3.31201 4.16602V6.35352C3.31201 6.95672 3.80256 7.44727 4.40576 7.44727H5.49951C6.10272 7.44727 6.59326 6.95672 6.59326 6.35352V4.16602C6.59326 3.56281 6.10272 3.07227 5.49951 3.07227ZM4.40576 6.35352V4.16602H5.49951L5.50006 6.35352H4.40576ZM14.2495 7.44727C14.8527 7.44727 15.3433 6.95672 15.3433 6.35352V4.16602C15.3433 3.56281 14.8527 3.07227 14.2495 3.07227H13.1558C12.5526 3.07227 12.062 3.56281 12.062 4.16602V6.35352C12.062 6.95672 12.5526 7.44727 13.1558 7.44727H14.2495ZM13.1558 4.16602H14.2495L14.2501 6.35352H13.1558V4.16602ZM1.12451 8.54102H2.21826V12.916H1.12451V8.54102ZM3.31201 8.54102H4.40576V12.916H3.31201V8.54102ZM6.59326 8.54102C5.99006 8.54102 5.49951 9.03156 5.49951 9.63477V11.8223C5.49951 12.4255 5.99006 12.916 6.59326 12.916H7.68701C8.29021 12.916 8.78076 12.4255 8.78076 11.8223V9.63477C8.78076 9.03156 8.29021 8.54102 7.68701 8.54102H6.59326ZM6.59326 11.8223V9.63477H7.68701L7.68756 11.8223H6.59326ZM9.87451 11.8223C9.87451 12.4255 10.3651 12.916 10.9683 12.916H12.062C12.6652 12.916 13.1558 12.4255 13.1558 11.8223V9.63477C13.1558 9.03156 12.6652 8.54102 12.062 8.54102H10.9683C10.3651 8.54102 9.87451 9.03156 9.87451 9.63477V11.8223ZM10.9683 9.63477H12.062L12.0626 11.8223H10.9683V9.63477ZM3.31201 31.5098H5.49951V32.6035H3.31201C2.70881 32.6035 2.21826 32.113 2.21826 31.5098V26.041H3.31201V31.5098ZM3.31201 24.9473H2.21826V23.8535H3.31201V24.9473ZM18.6245 19.4785H19.7183V20.5723H18.6245V19.4785ZM18.6245 21.666H19.7183V22.7598H18.6245V21.666ZM18.6245 23.8535H19.7183V24.9473H18.6245V23.8535ZM19.7183 32.0566C19.7183 32.3585 19.4733 32.6035 19.1714 32.6035C18.8695 32.6035 18.6245 32.3585 18.6245 32.0566C18.6245 31.7548 18.8695 31.5098 19.1714 31.5098C19.4733 31.5098 19.7183 31.7548 19.7183 32.0566ZM2.21826 20.0254C2.21826 19.7235 2.46326 19.4785 2.76514 19.4785C3.06701 19.4785 3.31201 19.7235 3.31201 20.0254C3.31201 20.3273 3.06701 20.5723 2.76514 20.5723C2.46326 20.5723 2.21826 20.3273 2.21826 20.0254Z" fill="url(#paint0_angular)"/>
<defs>
<radialGradient id="paint0_angular" cx="0" cy="0" r="1" gradientUnits="userSpaceOnUse" gradientTransform="translate(10.9191 24.24) rotate(28.4638) scale(22.2272 21.2921)">
<stop offset="0.598958" stop-color="#14B1F8"/>
<stop offset="1" stop-color="#01EAB2"/>
</radialGradient>
</defs>
</svg>
