<svg width="34" height="34" viewBox="0 0 34 34" fill="none" xmlns="http://www.w3.org/2000/svg">
<path d="M33.337 18.2571L28.5329 8.16849C28.7293 7.97279 28.8728 7.73048 28.9501 7.46421C29.0274 7.19795 29.0359 6.91643 28.9748 6.64598C28.9138 6.37554 28.7851 6.125 28.6008 5.91781C28.4166 5.71062 28.1828 5.55353 27.9214 5.46125V4.82031C27.9214 4.67527 27.8638 4.53617 27.7612 4.43361C27.6587 4.33105 27.5196 4.27344 27.3745 4.27344H19.1699C19.0378 4.09792 18.8852 3.93881 18.7154 3.7995L18.6241 1.51726C18.6185 1.3761 18.5584 1.2426 18.4566 1.14472C18.3547 1.04684 18.2189 0.992181 18.0776 0.992188H15.8901C15.7489 0.992181 15.6131 1.04684 15.5112 1.14472C15.4093 1.2426 15.3493 1.3761 15.3437 1.51726L15.2524 3.7995C15.0826 3.93881 14.93 4.09792 14.7979 4.27344H6.59326C6.44822 4.27344 6.30912 4.33105 6.20656 4.43361C6.104 4.53617 6.04639 4.67527 6.04639 4.82031V5.46125C5.78498 5.55355 5.55124 5.71063 5.36704 5.91781C5.18283 6.12499 5.05417 6.37549 4.99309 6.6459C4.93201 6.91632 4.9405 7.1978 5.01777 7.46404C5.09504 7.73028 5.23856 7.97258 5.43491 8.16828L0.630752 18.2571H0.63123C0.596001 18.3305 0.577687 18.4108 0.577637 18.4922C0.577637 20.0876 1.21142 21.6177 2.33957 22.7459C3.46772 23.874 4.99782 24.5078 6.59326 24.5078C8.1887 24.5078 9.7188 23.874 10.847 22.7459C11.9751 21.6177 12.6089 20.0876 12.6089 18.4922C12.6088 18.4109 12.5905 18.3306 12.5553 18.2573H12.5558L7.75161 8.16849C7.92515 7.99538 8.05778 7.78566 8.13982 7.55469H14.798C14.8862 7.67162 14.9836 7.78134 15.0892 7.88281L14.271 28.3359H7.68701C7.54197 28.3359 7.40287 28.3936 7.30031 28.4961C7.19775 28.5987 7.14014 28.7378 7.14014 28.8828V30.5234H3.85889C3.71385 30.5234 3.57475 30.5811 3.47219 30.6836C3.36963 30.7862 3.31201 30.9253 3.31201 31.0703V33.2578C3.31201 33.4029 3.36963 33.542 3.47219 33.6445C3.57475 33.7471 3.71385 33.8047 3.85889 33.8047H30.1089C30.2539 33.8047 30.393 33.7471 30.4956 33.6445C30.5981 33.542 30.6558 33.4029 30.6558 33.2578V31.0703C30.6558 30.9253 30.5981 30.7862 30.4956 30.6836C30.393 30.5811 30.2539 30.5234 30.1089 30.5234H26.8276V28.8828C26.8276 28.7378 26.77 28.5987 26.6675 28.4961C26.5649 28.3936 26.4258 28.3359 26.2808 28.3359H19.6968L18.8787 7.88281C18.9843 7.78134 19.0817 7.67162 19.1699 7.55469H25.8281C25.9101 7.78566 26.0428 7.99538 26.2163 8.16849L21.412 18.2571H21.4125C21.3773 18.3305 21.3589 18.4108 21.3589 18.4922C21.3589 20.0876 21.9927 21.6177 23.1208 22.7459C24.249 23.874 25.7791 24.5078 27.3745 24.5078C28.97 24.5078 30.5001 23.874 31.6282 22.7459C32.7564 21.6177 33.3901 20.0876 33.3901 18.4922C33.3901 18.4109 33.3717 18.3306 33.3365 18.2573L33.337 18.2571ZM6.59326 6.46094C6.70142 6.46094 6.80716 6.49301 6.89709 6.5531C6.98702 6.61319 7.05712 6.6986 7.09851 6.79853C7.1399 6.89846 7.15073 7.00842 7.12963 7.1145C7.10853 7.22059 7.05644 7.31803 6.97996 7.39451C6.90348 7.47099 6.80604 7.52308 6.69995 7.54418C6.59387 7.56528 6.48391 7.55445 6.38398 7.51306C6.28405 7.47167 6.19864 7.40157 6.13855 7.31164C6.07846 7.22171 6.04639 7.11597 6.04639 7.00781C6.04655 6.86282 6.10422 6.72382 6.20674 6.62129C6.30927 6.51877 6.44827 6.4611 6.59326 6.46094ZM6.59326 23.4141C5.38299 23.4125 4.21558 22.9658 3.31347 22.159C2.41136 21.3522 1.8376 20.2417 1.70153 19.0391H11.485C11.3489 20.2417 10.7752 21.3522 9.87306 22.159C8.97095 22.9658 7.80353 23.4125 6.59326 23.4141ZM11.1959 17.9453H1.99062L6.42236 8.63948C6.53621 8.65142 6.651 8.65142 6.76484 8.63948L11.1959 17.9453ZM14.3045 6.46094H8.13982C8.05775 6.2306 7.92547 6.02141 7.75257 5.84851C7.57967 5.6756 7.37047 5.54332 7.14014 5.46125V5.36719H14.3045C14.2312 5.72808 14.2312 6.10005 14.3045 6.46094ZM16.4156 2.08594H17.5522L17.5991 3.25023C17.1946 3.15617 16.7739 3.15617 16.3693 3.25023L16.4156 2.08594ZM16.9839 4.27344C17.3084 4.27344 17.6256 4.36966 17.8954 4.54993C18.1652 4.73021 18.3755 4.98644 18.4996 5.28622C18.6238 5.58601 18.6563 5.91588 18.593 6.23413C18.5297 6.55238 18.3734 6.84471 18.144 7.07416C17.9145 7.30361 17.6222 7.45986 17.304 7.52316C16.9857 7.58647 16.6558 7.55398 16.356 7.4298C16.0563 7.30563 15.8 7.09534 15.6198 6.82554C15.4395 6.55575 15.3433 6.23855 15.3433 5.91406C15.3438 5.4791 15.5168 5.06209 15.8243 4.75452C16.1319 4.44696 16.5489 4.27394 16.9839 4.27344ZM18.6022 28.3359H15.3655L16.1585 8.52074C16.6958 8.691 17.2726 8.691 17.8099 8.52074L18.6022 28.3359ZM29.562 31.6172V32.7109H4.40576V31.6172H29.562ZM25.7339 29.4297V30.5234H8.23389V29.4297H25.7339ZM27.3745 6.46094C27.4827 6.46094 27.5884 6.49301 27.6783 6.5531C27.7683 6.61319 27.8384 6.6986 27.8798 6.79853C27.9211 6.89846 27.932 7.00842 27.9109 7.1145C27.8898 7.22059 27.8377 7.31803 27.7612 7.39451C27.6847 7.47099 27.5873 7.52308 27.4812 7.54418C27.3751 7.56528 27.2652 7.55445 27.1652 7.51306C27.0653 7.47167 26.9799 7.40157 26.9198 7.31164C26.8597 7.22171 26.8276 7.11597 26.8276 7.00781C26.8278 6.86282 26.8855 6.72382 26.988 6.62129C27.0905 6.51877 27.2295 6.4611 27.3745 6.46094ZM25.8279 6.46094H19.6636C19.7369 6.10005 19.7369 5.72808 19.6636 5.36719H26.8276V5.46125C26.5973 5.54332 26.3881 5.6756 26.2152 5.84851C26.0423 6.02141 25.91 6.2306 25.8279 6.46094ZM27.2036 8.63948C27.3175 8.65142 27.4322 8.65142 27.5461 8.63948L31.9771 17.9453H22.7719L27.2036 8.63948ZM27.3745 23.4141C26.1642 23.4125 24.9968 22.9658 24.0947 22.159C23.1926 21.3522 22.6189 20.2417 22.4828 19.0391H32.2662C32.1302 20.2417 31.5564 21.3522 30.6543 22.159C29.7522 22.9658 28.5848 23.4125 27.3745 23.4141Z" fill="url(#paint0_angular)"/>
<defs>
<radialGradient id="paint0_angular" cx="0" cy="0" r="1" gradientUnits="userSpaceOnUse" gradientTransform="translate(11.1148 23.5941) rotate(28.4638) scale(21.5102 20.6053)">
<stop offset="0.598958" stop-color="#14B1F8"/>
<stop offset="1" stop-color="#01EAB2"/>
</radialGradient>
</defs>
</svg>
